<svg width="114" height="108" viewBox="0 0 114 108" fill="none" xmlns="http://www.w3.org/2000/svg">
<path d="M62.1114 56.5031C63.0678 56.5031 63.9094 55.872 64.1687 54.953L65.665 50.993C65.8988 50.1798 65.2867 49.3751 64.4365 49.3751H58.6768H51.2295H51.221C39.0852 49.3751 31.0301 41.0104 34.2819 29.6429C34.4264 29.16 34.6007 28.6815 34.8005 28.2156H29.1556C29.0578 28.6857 28.9388 29.16 28.7942 29.6429C25.6445 40.6504 14.6394 48.8457 2.92438 49.3497C2.22726 49.3793 1.62366 49.8368 1.39837 50.4975L0.0891483 54.3685C-0.263661 55.4146 0.471713 56.4946 1.57265 56.592C11.6681 57.4857 17.6956 64.5671 15.9316 74.2066C15.7403 75.257 16.5267 76.2269 17.5979 76.2269H19.7275C20.4543 76.2269 21.0962 75.7652 21.3342 75.0791C25.0706 64.3088 37.1044 56.5031 48.8236 56.4989H56.2709H62.1029L62.1114 56.5031Z" fill="url(#paint0_linear_989_4268)"/>
<path d="M52.2328 16.5641C52.6026 16.5514 52.9257 16.3143 53.0277 15.9627C53.1765 15.463 53.3933 14.7387 53.5676 14.1416C53.7248 13.6206 53.3465 13.0954 52.8024 13.0616C45.7377 12.5914 41.5168 7.45827 42.8898 1.02486C43.0003 0.49968 42.6135 0.00415039 42.0736 0.00415039H40.097C39.7357 0.00415039 39.4212 0.241327 39.3021 0.58015C36.9685 7.28462 29.3852 12.6804 21.7934 13.0743C21.2579 13.1039 20.803 13.4639 20.65 13.9722C20.5097 14.438 20.3354 15.014 20.1909 15.5053C20.0336 16.0305 20.412 16.5514 20.9603 16.5896C27.7232 17.0597 30.4649 21.9811 29.1514 28.2197H34.7964C37.4828 21.8413 44.8791 16.8394 52.2286 16.5641H52.2328Z" fill="url(#paint1_linear_989_4268)"/>
<path d="M111.543 36.144C112.291 36.0975 112.925 35.5765 113.095 34.848C113.345 33.7935 113.702 32.2815 113.97 31.1591C114.153 30.384 113.583 29.6471 112.789 29.6005C103.96 29.0965 97.1331 24.2556 98.5189 16.3229C98.6549 15.5393 98.064 14.8193 97.2692 14.8193H95.2246C94.6847 14.8193 94.2044 15.1539 94.0259 15.6622C90.9696 24.4504 81.2014 29.6429 71.395 29.6429H58.8129C57.6865 29.6429 56.9723 30.2824 56.7131 31.32L56.1094 33.8782C55.7864 34.9878 56.6238 36.1017 57.7842 36.1017H69.7798C80.8444 36.1017 86.3363 42.6876 82.3109 56.5031H88.7167C92.5594 43.3144 102.672 36.72 111.552 36.144H111.543Z" fill="url(#paint2_linear_989_4268)"/>
<path d="M106.715 77.087C93.4854 76.5444 85.0537 69.3254 88.7001 56.5029H82.2956C78.611 69.46 65.6107 76.6958 51.8965 77.1039C51.1613 77.1249 50.5281 77.6213 50.3283 78.3239C50.0776 79.2031 49.7334 80.4231 49.4359 81.4538C49.1469 82.4718 49.8693 83.4941 50.9318 83.5782C63.2946 84.5458 70.6086 94.1458 68.0077 106.11C67.8334 106.901 68.4284 107.654 69.2486 107.654H72.4955C73.4092 107.654 74.2124 107.073 74.5099 106.219C78.7682 93.9271 92.083 84.1041 105.33 83.5277C106.061 83.4941 106.685 83.0019 106.881 82.3077L107.901 78.6941C108.122 77.9074 107.54 77.1291 106.715 77.0955V77.087Z" fill="url(#paint3_linear_989_4268)"/>
<defs>
<linearGradient id="paint0_linear_989_4268" x1="113.504" y1="0.499998" x2="41.9317" y2="130.337" gradientUnits="userSpaceOnUse">
<stop stop-color="#4BC0B3"/>
<stop offset="1" stop-color="#4B5EAB"/>
</linearGradient>
<linearGradient id="paint1_linear_989_4268" x1="113.504" y1="0.499876" x2="21.4857" y2="123.231" gradientUnits="userSpaceOnUse">
<stop stop-color="#4BC0B3"/>
<stop offset="1" stop-color="#4B5EAB"/>
</linearGradient>
<linearGradient id="paint2_linear_989_4268" x1="113.504" y1="0.499997" x2="44.2356" y2="130.756" gradientUnits="userSpaceOnUse">
<stop stop-color="#4BC0B3"/>
<stop offset="1" stop-color="#4B5EAB"/>
</linearGradient>
<linearGradient id="paint3_linear_989_4268" x1="113.504" y1="0.499997" x2="16.839" y2="120.643" gradientUnits="userSpaceOnUse">
<stop stop-color="#4BC0B3"/>
<stop offset="1" stop-color="#4B5EAB"/>
</linearGradient>
</defs>
</svg>
