<?xml version="1.0" encoding="UTF-8"?>
<svg id="Layer_1" xmlns="http://www.w3.org/2000/svg" xmlns:xlink="http://www.w3.org/1999/xlink" version="1.1" viewBox="0 0 100.28 100.04">
  <!-- Generator: Adobe Illustrator 30.2.1, SVG Export Plug-In . SVG Version: 2.1.1 Build 1)  -->
  <defs>
    <style>
      .st0 {
        fill: gray;
      }

      .st1 {
        fill: url(#radial-gradient);
        opacity: .3;
      }

      .st2 {
        fill: #fff;
      }

      .st3 {
        fill: #f30000;
      }
    </style>
    <radialGradient id="radial-gradient" cx="140.23" cy="47.09" fx="140.23" fy="47.09" r="42.18" gradientTransform="translate(-60.45 13.23) scale(.8)" gradientUnits="userSpaceOnUse">
      <stop offset=".67" stop-color="#000"/>
      <stop offset="1" stop-color="#000" stop-opacity=".1"/>
    </radialGradient>
  </defs>
  <circle class="st0" cx="50.3" cy="50.32" r="50"/>
  <circle class="st3" cx="50.26" cy="50.32" r="21.83"/>
  <polygon class="st2" points="32.77 58.32 42.35 34.32 46.35 44.32 40.74 58.32 32.77 58.32"/>
  <polygon class="st2" points="58.35 34.32 48.37 59.27 52.4 69.37 59.45 51.56 62.35 58.32 67.94 58.32 58.35 34.32"/>
  <path class="st2" d="M86.8,50.32c0,10.08-4.09,19.2-10.69,25.81-6.61,6.61-15.73,10.69-25.81,10.69s-19.2-4.09-25.81-10.69c-6.61-6.61-10.69-15.73-10.69-25.81s4.09-19.2,10.69-25.81c6.61-6.61,15.73-10.69,25.81-10.69s19.2,4.09,25.81,10.69l-10.32,10.32c-3.96-3.96-9.44-6.41-15.49-6.41s-11.52,2.45-15.49,6.41c-3.96,3.96-6.41,9.44-6.41,15.49s2.45,11.52,6.41,15.49,9.44,6.41,15.49,6.41,11.52-2.45,15.49-6.41c3.96-3.96,6.41-9.44,6.41-15.49h14.6Z"/>
  <path class="st2" d="M86.51,45.52h-23.65v12.8h23.15c.52-2.59.8-5.26.8-8,0-1.63-.11-3.23-.3-4.8Z"/>
  <path class="st1" d="M52.4,69.37l7.04-17.8,2.9,6.75h23.66c-1.68,8.55-7.44,15.47-9.89,17.81-3.05,2.91-6.47,5.25-9.88,7.04l-13.83-13.8Z"/>
</svg>